<?xml version="1.0" encoding="utf-8"?>
<!-- Generator: Adobe Illustrator 19.1.0, SVG Export Plug-In . SVG Version: 6.00 Build 0)  -->
<svg version="1.1" id="Layer_1" xmlns="http://www.w3.org/2000/svg" xmlns:xlink="http://www.w3.org/1999/xlink" x="0px" y="0px"
	 viewBox="-203 354.1 203.7 84.9" enable-background="new -203 354.1 203.7 84.9" xml:space="preserve">
<path fill="#A7A9AC" d="M-71.5,380.9c-2,0-3.9,0.5-5.6,1.4c-1.7,1-3.4,2.5-5.1,4.6c-0.8-1.8-2-3.3-3.6-4.4s-3.6-1.6-5.9-1.6
	c-1.9,0-3.6,0.4-5.1,1.2s-2.9,2-4.4,3.6v-4.2h-7.9v30.1h7.9v-20c1.2-1.6,2.4-2.8,3.5-3.6c1.1-0.7,2.3-1.1,3.5-1.1
	c1.6,0,2.9,0.6,3.8,1.8s1.4,2.8,1.4,4.9v18.1h7.9v-20c2.2-3.1,4.6-4.7,7-4.7c1.7,0,3,0.6,3.9,1.8c0.9,1.2,1.3,2.8,1.3,4.9v18h7.9
	v-19.4c0-3.5-1-6.2-2.9-8.3C-65.7,382-68.3,380.9-71.5,380.9z"/>
<path fill="#A7A9AC" d="M-26.3,397c0-5-1.3-8.9-3.9-11.8c-2.6-2.8-6.1-4.3-10.5-4.3c-4.5,0-8.1,1.5-10.9,4.4
	c-2.8,2.9-4.2,6.6-4.2,11.2c0,4.8,1.5,8.6,4.5,11.4c3,2.9,6.9,4.3,11.6,4.3c5,0,9.3-1.2,12.8-3.7v-5.9c-1.9,1.3-3.7,2.3-5.4,3
	c-1.8,0.7-3.6,1-5.5,1c-2.9,0-5.3-0.7-7-2.2s-2.7-3.5-3-6.2h21.3V397H-26.3z M-47.5,393.3c0.3-2.3,1.1-4,2.3-5.2s2.8-1.8,4.8-1.8
	s3.5,0.6,4.6,1.9c1.1,1.2,1.8,3,2,5.1H-47.5z"/>
<path fill="#A7A9AC" d="M-153.8,381.4h-8.5l-7.2,16.2l-7.1-16.2h-14.2v-2.2c0-2.3,0.5-3.9,1.4-4.9c0.9-1,2.4-1.5,4.3-1.5
	c1.3,0,2.5,0.2,3.6,0.5v-6.5c-0.6-0.3-1.4-0.5-2.4-0.7s-1.9-0.3-2.9-0.3c-3.6,0-6.5,1.2-8.7,3.6c-2.2,2.4-3.3,5.6-3.3,9.7v2.3h-4.2
	v6h4.3v24.1h7.9v-24.1h8.3l8.8,18.6l-9.6,20.7h8.5l19-41.4l9.1,10.8l-12.3,15.5h4.9l11.9-15.4L-153.8,381.4z"/>
<polygon fill="#00AEEF" points="-121.3,381.5 -126.4,381.5 -135,393.2 -143.5,381.4 -148.7,381.4 -137.2,396.3 -148.7,411.6 
	-143.8,411.6 -135,399.3 -126.2,411.6 -121.3,411.6 -132.8,396.3 "/>
<polygon fill="#A7A9AC" points="-116.1,381.5 -127.8,396.3 -115.9,411.6 -111,411.6 -123.4,396.3 -111,381.5 "/>
<rect x="-203" y="354.1" fill="none" width="203.7" height="84.9"/>
</svg>
